<svg width="36" height="36" viewBox="0 0 36 36" fill="none" xmlns="http://www.w3.org/2000/svg">
<path d="M4 32H8C8.56667 32 9.042 32.192 9.426 32.576C9.81 32.96 10.0013 33.4347 10 34C9.99867 34.5653 9.80667 35.0407 9.424 35.426C9.04133 35.8113 8.56667 36.0027 8 36H2C1.43333 36 0.958667 35.808 0.576 35.424C0.193334 35.04 0.00133333 34.5653 0 34V28C0 27.4333 0.192 26.9587 0.576 26.576C0.96 26.1933 1.43467 26.0013 2 26C2.56533 25.9987 3.04067 26.1907 3.426 26.576C3.81133 26.9613 4.00267 27.436 4 28V32ZM32 32V28C32 27.4333 32.192 26.9587 32.576 26.576C32.96 26.1933 33.4347 26.0013 34 26C34.5653 25.9987 35.0407 26.1907 35.426 26.576C35.8113 26.9613 36.0027 27.436 36 28V34C36 34.5667 35.808 35.042 35.424 35.426C35.04 35.81 34.5653 36.0013 34 36H28C27.4333 36 26.9587 35.808 26.576 35.424C26.1933 35.04 26.0013 34.5653 26 34C25.9987 33.4347 26.1907 32.96 26.576 32.576C26.9613 32.192 27.436 32 28 32H32ZM4 4V8C4 8.56667 3.808 9.042 3.424 9.426C3.04 9.81 2.56533 10.0013 2 10C1.43467 9.99867 0.96 9.80667 0.576 9.424C0.192 9.04133 0 8.56667 0 8V2C0 1.43333 0.192 0.958667 0.576 0.576C0.96 0.193334 1.43467 0.00133333 2 0H8C8.56667 0 9.042 0.192 9.426 0.576C9.81 0.96 10.0013 1.43467 10 2C9.99867 2.56533 9.80667 3.04067 9.424 3.426C9.04133 3.81133 8.56667 4.00267 8 4H4ZM32 4H28C27.4333 4 26.9587 3.808 26.576 3.424C26.1933 3.04 26.0013 2.56533 26 2C25.9987 1.43467 26.1907 0.96 26.576 0.576C26.9613 0.192 27.436 0 28 0H34C34.5667 0 35.042 0.192 35.426 0.576C35.81 0.96 36.0013 1.43467 36 2V8C36 8.56667 35.808 9.042 35.424 9.426C35.04 9.81 34.5653 10.0013 34 10C33.4347 9.99867 32.96 9.80667 32.576 9.424C32.192 9.04133 32 8.56667 32 8V4Z" fill="#F7EFE5"/>
</svg>
