<svg width="34" height="36" viewBox="0 0 34 36" fill="none" xmlns="http://www.w3.org/2000/svg">
<path d="M19.7738 0.849847L32.5038 9.33585C32.7778 9.51849 33.0023 9.76593 33.1577 10.0562C33.313 10.3465 33.3943 10.6706 33.3943 10.9998C33.3943 11.3291 33.313 11.6532 33.1577 11.9435C33.0023 12.2338 32.7778 12.4812 32.5038 12.6638L19.7738 21.1518C18.9524 21.6996 17.9872 21.9919 16.9998 21.9919C16.0125 21.9919 15.0473 21.6996 14.2258 21.1518L1.49584 12.6638C1.22192 12.4812 0.997332 12.2338 0.841997 11.9435C0.686663 11.6532 0.605389 11.3291 0.605389 10.9998C0.605389 10.6706 0.686663 10.3465 0.841997 10.0562C0.997332 9.76593 1.22192 9.51849 1.49584 9.33585L14.2258 0.849847C15.0473 0.302077 16.0125 0.00976563 16.9998 0.00976562C17.9872 0.00976562 18.9524 0.302077 19.7738 0.849847ZM33.0518 18.3838C32.7551 18.8589 32.362 19.2664 31.8978 19.5798L19.7978 27.7478C18.9714 28.3059 17.997 28.604 16.9998 28.604C16.0027 28.604 15.0283 28.3059 14.2018 27.7478L2.10184 19.5798C1.37765 19.0913 0.833312 18.3791 0.551978 17.5521C0.270643 16.725 0.267785 15.8287 0.543838 14.9998L14.2258 24.1198C14.994 24.6317 15.8888 24.921 16.8112 24.9556C17.7336 24.9902 18.6475 24.7687 19.4518 24.3158L19.7718 24.1198L33.4538 14.9998C33.6402 15.5587 33.7007 16.1518 33.6312 16.7368C33.5617 17.3218 33.3639 17.8842 33.0518 18.3838ZM33.0518 24.8838C32.7551 25.3589 32.362 25.7664 31.8978 26.0798L19.7978 34.2478C18.9714 34.8059 17.997 35.104 16.9998 35.104C16.0027 35.104 15.0283 34.8059 14.2018 34.2478L2.10184 26.0798C1.37765 25.5913 0.833312 24.8791 0.551978 24.0521C0.270643 23.225 0.267785 22.3287 0.543838 21.4998L14.2258 30.6198C14.994 31.1317 15.8888 31.421 16.8112 31.4556C17.7336 31.4902 18.6475 31.2687 19.4518 30.8158L19.7718 30.6198L33.4538 21.4998C33.6402 22.0587 33.7007 22.6518 33.6312 23.2368C33.5617 23.8218 33.3639 24.3842 33.0518 24.8838Z" fill="#F7EFE5"/>
</svg>
