<svg width="36" height="36" viewBox="0 0 36 36" fill="none" xmlns="http://www.w3.org/2000/svg">
<path d="M6.00001 30H2.00001C1.43334 30 0.958674 29.808 0.576007 29.424C0.19334 29.04 0.00134023 28.5653 6.89654e-06 28C-0.00132644 27.4347 0.190674 26.96 0.576007 26.576C0.96134 26.192 1.43601 26 2.00001 26H8.00001C8.56667 26 9.04201 26.192 9.42601 26.576C9.81001 26.96 10.0013 27.4347 10 28V34C10 34.5667 9.80801 35.042 9.42401 35.426C9.04001 35.81 8.56534 36.0013 8.00001 36C7.43467 35.9987 6.96001 35.8067 6.57601 35.424C6.19201 35.0413 6.00001 34.5667 6.00001 34V30ZM30 30V34C30 34.5667 29.808 35.042 29.424 35.426C29.04 35.81 28.5653 36.0013 28 36C27.4347 35.9987 26.96 35.8067 26.576 35.424C26.192 35.0413 26 34.5667 26 34V28C26 27.4333 26.192 26.9587 26.576 26.576C26.96 26.1933 27.4347 26.0013 28 26H34C34.5667 26 35.042 26.192 35.426 26.576C35.81 26.96 36.0013 27.4347 36 28C35.9987 28.5653 35.8067 29.0407 35.424 29.426C35.0413 29.8113 34.5667 30.0027 34 30H30ZM6.00001 6.00001V2.00001C6.00001 1.43334 6.19201 0.958674 6.57601 0.576007C6.96001 0.19334 7.43467 0.00134023 8.00001 6.89654e-06C8.56534 -0.00132644 9.04067 0.190674 9.42601 0.576007C9.81134 0.96134 10.0027 1.43601 10 2.00001V8.00001C10 8.56667 9.80801 9.04201 9.42401 9.42601C9.04001 9.81001 8.56534 10.0013 8.00001 10H2.00001C1.43334 10 0.958674 9.80801 0.576007 9.42401C0.19334 9.04001 0.00134023 8.56534 6.89654e-06 8.00001C-0.00132644 7.43467 0.190674 6.96001 0.576007 6.57601C0.96134 6.19201 1.43601 6.00001 2.00001 6.00001H6.00001ZM30 6.00001H34C34.5667 6.00001 35.042 6.19201 35.426 6.57601C35.81 6.96001 36.0013 7.43467 36 8.00001C35.9987 8.56534 35.8067 9.04067 35.424 9.42601C35.0413 9.81134 34.5667 10.0027 34 10H28C27.4333 10 26.9587 9.80801 26.576 9.42401C26.1933 9.04001 26.0013 8.56534 26 8.00001V2.00001C26 1.43334 26.192 0.958674 26.576 0.576007C26.96 0.19334 27.4347 0.00134023 28 6.89654e-06C28.5653 -0.00132644 29.0407 0.190674 29.426 0.576007C29.8113 0.96134 30.0027 1.43601 30 2.00001V6.00001Z" fill="#F7EFE5"/>
</svg>
